<mxfile host="app.diagrams.net" modified="2023-03-01T12:30:52.225Z" agent="5.0 (Windows NT 10.0; Win64; x64) AppleWebKit/537.36 (KHTML, like Gecko) Chrome/110.0.0.0 Safari/537.36" etag="nOmNuJdAKr-PIJ8oHqYF" version="20.8.23" type="github">
  <diagram name="第 1 页" id="2HcNpDpKpD43kfRhDceQ">
    <mxGraphModel dx="1084" dy="465" grid="1" gridSize="10" guides="1" tooltips="1" connect="1" arrows="1" fold="1" page="1" pageScale="1" pageWidth="827" pageHeight="1169" math="0" shadow="0">
      <root>
        <mxCell id="0" />
        <mxCell id="1" parent="0" />
        <mxCell id="VEBtaycLKmm5noyyKj6F-1" value="&lt;pre&gt;&lt;br&gt;&lt;/pre&gt;" style="rounded=0;whiteSpace=wrap;html=1;labelBackgroundColor=#ffffff;hachureGap=4;strokeColor=none;strokeWidth=1;fontFamily=Architects Daughter;fontSource=https%3A%2F%2Ffonts.googleapis.com%2Fcss%3Ffamily%3DArchitects%2BDaughter;fontSize=11;fillColor=#7EA6E0;" vertex="1" parent="1">
          <mxGeometry x="70" y="240" width="120" height="40" as="geometry" />
        </mxCell>
        <mxCell id="VEBtaycLKmm5noyyKj6F-2" value="&lt;font color=&quot;#000000&quot;&gt;&lt;span style=&quot;font-size: 14px;&quot;&gt;&lt;b&gt;模型问题&lt;/b&gt;&lt;/span&gt;&lt;/font&gt;" style="text;html=1;strokeColor=none;fillColor=none;align=center;verticalAlign=middle;whiteSpace=wrap;rounded=0;fontSize=11;fontFamily=Architects Daughter;fontColor=#FFFFFF;" vertex="1" parent="1">
          <mxGeometry x="100" y="245" width="60" height="30" as="geometry" />
        </mxCell>
        <mxCell id="VEBtaycLKmm5noyyKj6F-4" value="&lt;pre&gt;&lt;br&gt;&lt;/pre&gt;" style="rounded=0;whiteSpace=wrap;html=1;labelBackgroundColor=#ffffff;hachureGap=4;strokeColor=none;strokeWidth=1;fontFamily=Architects Daughter;fontSource=https%3A%2F%2Ffonts.googleapis.com%2Fcss%3Ffamily%3DArchitects%2BDaughter;fontSize=11;fillColor=#7EA6E0;" vertex="1" parent="1">
          <mxGeometry x="294" y="240" width="236" height="40" as="geometry" />
        </mxCell>
        <mxCell id="VEBtaycLKmm5noyyKj6F-5" value="&lt;b&gt;&lt;font style=&quot;font-size: 14px;&quot; color=&quot;#000000&quot;&gt;问题&lt;/font&gt;&lt;/b&gt;" style="text;html=1;strokeColor=none;fillColor=none;align=center;verticalAlign=middle;whiteSpace=wrap;rounded=0;fontSize=11;fontFamily=Architects Daughter;fontColor=#FFFFFF;" vertex="1" parent="1">
          <mxGeometry x="384" y="245" width="60" height="30" as="geometry" />
        </mxCell>
        <mxCell id="VEBtaycLKmm5noyyKj6F-6" value="&lt;pre&gt;&lt;br&gt;&lt;/pre&gt;" style="rounded=0;whiteSpace=wrap;html=1;labelBackgroundColor=#ffffff;hachureGap=4;strokeColor=none;strokeWidth=1;fontFamily=Architects Daughter;fontSource=https%3A%2F%2Ffonts.googleapis.com%2Fcss%3Ffamily%3DArchitects%2BDaughter;fontSize=11;fillColor=#7EA6E0;" vertex="1" parent="1">
          <mxGeometry x="560" y="240" width="236" height="40" as="geometry" />
        </mxCell>
        <mxCell id="VEBtaycLKmm5noyyKj6F-11" value="&lt;pre&gt;&lt;br&gt;&lt;/pre&gt;" style="rounded=0;whiteSpace=wrap;html=1;labelBackgroundColor=#ffffff;hachureGap=4;strokeColor=none;strokeWidth=1;fontFamily=Architects Daughter;fontSource=https%3A%2F%2Ffonts.googleapis.com%2Fcss%3Ffamily%3DArchitects%2BDaughter;fontSize=11;fillColor=#7EA6E0;" vertex="1" parent="1">
          <mxGeometry x="70" y="330" width="120" height="40" as="geometry" />
        </mxCell>
        <mxCell id="VEBtaycLKmm5noyyKj6F-12" value="&lt;font color=&quot;#000000&quot;&gt;&lt;span style=&quot;font-size: 14px;&quot;&gt;&lt;b&gt;模型项目&lt;/b&gt;&lt;/span&gt;&lt;/font&gt;" style="text;html=1;strokeColor=none;fillColor=none;align=center;verticalAlign=middle;whiteSpace=wrap;rounded=0;fontSize=11;fontFamily=Architects Daughter;fontColor=#FFFFFF;" vertex="1" parent="1">
          <mxGeometry x="100" y="335" width="60" height="30" as="geometry" />
        </mxCell>
        <mxCell id="VEBtaycLKmm5noyyKj6F-13" value="&lt;pre&gt;&lt;br&gt;&lt;/pre&gt;" style="rounded=0;whiteSpace=wrap;html=1;labelBackgroundColor=#ffffff;hachureGap=4;strokeColor=none;strokeWidth=1;fontFamily=Architects Daughter;fontSource=https%3A%2F%2Ffonts.googleapis.com%2Fcss%3Ffamily%3DArchitects%2BDaughter;fontSize=11;fillColor=#7EA6E0;" vertex="1" parent="1">
          <mxGeometry x="70" y="420" width="120" height="40" as="geometry" />
        </mxCell>
        <mxCell id="VEBtaycLKmm5noyyKj6F-14" value="&lt;font color=&quot;#000000&quot;&gt;&lt;span style=&quot;font-size: 14px;&quot;&gt;&lt;b&gt;产品工具&lt;/b&gt;&lt;/span&gt;&lt;/font&gt;" style="text;html=1;strokeColor=none;fillColor=none;align=center;verticalAlign=middle;whiteSpace=wrap;rounded=0;fontSize=11;fontFamily=Architects Daughter;fontColor=#FFFFFF;" vertex="1" parent="1">
          <mxGeometry x="100" y="425" width="60" height="30" as="geometry" />
        </mxCell>
      </root>
    </mxGraphModel>
  </diagram>
</mxfile>
